<?xml version="1.0" standalone="no"?><!DOCTYPE svg PUBLIC "-//W3C//DTD SVG 1.1//EN" "http://www.w3.org/Graphics/SVG/1.1/DTD/svg11.dtd"><svg t="1668873572907" class="icon" viewBox="0 0 1024 1024" version="1.1" xmlns="http://www.w3.org/2000/svg" p-id="2685" xmlns:xlink="http://www.w3.org/1999/xlink" width="200" height="200"><path d="M885.6 921.4H743.9v-63.6H822V437.1L510.9 184.9 202 442.2v415.6h90.1v63.6H138.4V412.3l372-309.7 375.2 304.2z" fill="#4A5FE2" p-id="2686"></path><path d="M387.9 921.4h-11.5c-14.4 0-26-11.7-26-26V699.2c0-82.1 58.9-155.4 140.3-165.9 98.6-12.7 182.9 64.1 182.9 160.3v201.8c0 14.4-11.7 26-26 26h-11.5c-14.4 0-26-11.7-26-26V698c0-51.2-37.3-97-88.2-101.9-58.4-5.7-107.9 40.3-107.9 97.6v201.8c0 14.2-11.7 25.9-26.1 25.9z" fill="#A1AFFF" p-id="2687"></path></svg>