<?xml version="1.0" standalone="no"?><!DOCTYPE svg PUBLIC "-//W3C//DTD SVG 1.1//EN" "http://www.w3.org/Graphics/SVG/1.1/DTD/svg11.dtd"><svg t="1668874762711" class="icon" viewBox="0 0 1024 1024" version="1.1" xmlns="http://www.w3.org/2000/svg" p-id="2180" xmlns:xlink="http://www.w3.org/1999/xlink" width="200" height="200"><path d="M695.1 303.4H327.5c-10.1 0-18.4 8.2-18.4 18.4 0 10.1 8.2 18.4 18.4 18.4h367.6c10.1 0 18.4-8.2 18.4-18.4s-8.2-18.4-18.4-18.4z m128.7-183.8H198.9c-20.3 0-36.8 16.5-36.8 36.8v735.1c0 20.3 16.5 36.8 36.8 36.8h624.9c20.3 0 36.8-16.5 36.8-36.8V156.3c-0.1-20.3-16.5-36.7-36.8-36.7z m0 753.5c0 10.1-8.2 18.4-18.4 18.4H217.3c-10.1 0-18.4-8.2-18.4-18.4V174.7c0-10.1 8.2-18.4 18.4-18.4h588.1c10.2 0 18.4 8.2 18.4 18.4v698.4zM695.1 468.8H327.5c-10.1 0-18.4 8.2-18.4 18.4s8.2 18.4 18.4 18.4h367.6c10.1 0 18.4-8.2 18.4-18.4s-8.2-18.4-18.4-18.4z" p-id="2181" fill="#6a5fc9"></path></svg>